<?xml version="1.0" standalone="no"?>
<!DOCTYPE svg PUBLIC "-//W3C//DTD SVG 20010904//EN"
 "http://www.w3.org/TR/2001/REC-SVG-20010904/DTD/svg10.dtd">
<svg version="1.0" xmlns="http://www.w3.org/2000/svg"
 width="732.000000pt" height="732.000000pt" viewBox="0 0 732.000000 732.000000"
 preserveAspectRatio="xMidYMid meet">

<g transform="translate(0.000000,732.000000) scale(0.100000,-0.100000)"
fill="#000000" stroke="none">
<path d="M3295 6872 c-42 -27 -59 -49 -90 -113 -62 -133 -176 -171 -283 -94
-130 93 -134 95 -174 95 -60 0 -111 -54 -128 -135 -32 -145 -105 -210 -216
-192 -20 3 -67 22 -104 42 -105 54 -174 45 -211 -27 -11 -22 -19 -58 -19 -87
0 -114 -35 -192 -101 -226 -36 -19 -120 -19 -183 0 -159 48 -230 -22 -197
-198 22 -119 -26 -211 -120 -235 -25 -6 -77 -8 -119 -5 -165 12 -220 -74 -149
-232 15 -32 23 -70 23 -105 1 -105 -62 -161 -203 -182 -85 -12 -127 -37 -148
-85 -18 -45 -7 -95 39 -160 58 -86 72 -151 44 -217 -18 -44 -63 -77 -158 -116
-152 -62 -164 -146 -42 -268 32 -32 63 -71 71 -89 17 -42 17 -107 -1 -141 -18
-34 -72 -85 -112 -105 -17 -9 -47 -34 -67 -56 -69 -77 -45 -146 78 -225 82
-53 115 -101 115 -165 0 -60 -20 -98 -87 -167 -70 -71 -90 -117 -73 -168 15
-47 46 -72 124 -100 37 -14 82 -36 100 -50 69 -52 84 -139 40 -222 -15 -27
-40 -74 -56 -104 -33 -61 -33 -107 -1 -143 24 -27 91 -57 129 -57 54 0 131
-29 162 -61 36 -37 57 -104 47 -150 -4 -19 -18 -60 -31 -91 -28 -66 -30 -117
-9 -158 25 -48 61 -60 183 -60 97 0 113 -3 142 -22 74 -51 92 -105 77 -230
-12 -94 -7 -126 26 -164 30 -35 101 -43 180 -20 95 28 166 19 216 -27 35 -33
51 -79 58 -170 12 -178 87 -218 248 -136 70 36 86 40 133 36 90 -7 138 -59
167 -179 32 -130 108 -178 203 -129 20 10 46 29 57 41 30 33 94 67 140 75 77
12 151 -42 195 -142 42 -96 114 -140 180 -113 16 7 59 46 96 87 82 91 110 107
181 101 62 -5 91 -24 148 -95 115 -143 210 -136 284 21 30 64 82 119 129 137
28 11 93 4 127 -13 11 -6 40 -27 65 -48 101 -83 160 -92 220 -32 29 29 40 50
50 97 25 124 81 185 173 193 45 3 62 -2 132 -37 165 -84 236 -41 249 151 10
168 105 231 273 182 79 -23 150 -15 180 20 33 39 38 70 24 166 -18 126 3 186
77 228 34 19 55 22 147 22 91 0 113 3 140 20 59 37 69 101 29 195 -37 90 -41
144 -14 199 29 61 84 93 177 105 117 15 167 52 166 125 -1 42 -9 60 -73 171
-34 58 -40 127 -15 176 21 39 84 84 148 105 69 22 106 50 123 91 22 53 4 102
-61 168 -75 75 -95 110 -95 168 0 74 29 120 108 171 86 56 112 85 119 133 7
53 -25 96 -110 153 -84 55 -117 104 -117 174 0 60 31 117 88 163 50 41 84 108
76 151 -9 46 -57 88 -135 117 -116 45 -159 94 -159 182 0 35 9 62 30 98 63
109 73 131 74 165 2 75 -48 114 -165 130 -95 14 -150 46 -178 103 -28 58 -27
91 9 187 33 91 37 128 15 169 -24 48 -69 61 -187 59 -99 -3 -106 -2 -146 24
-73 49 -86 100 -67 264 8 77 -4 118 -47 148 -28 20 -98 20 -162 1 -58 -18
-139 -19 -169 -4 -70 36 -107 112 -107 222 0 42 -6 70 -21 97 -41 72 -101 78
-220 20 -86 -42 -134 -49 -186 -29 -58 22 -104 87 -119 164 -16 94 -70 155
-134 155 -37 0 -44 -4 -172 -95 -109 -78 -229 -36 -289 101 -57 127 -152 159
-231 76 -20 -20 -52 -56 -72 -78 -59 -68 -131 -90 -203 -64 -15 6 -64 49 -108
96 -70 74 -86 86 -120 90 -29 4 -49 0 -70 -14z m755 -550 c259 -47 457 -111
675 -218 335 -164 615 -388 850 -681 275 -344 455 -773 511 -1223 19 -151 18
-457 -1 -607 -136 -1053 -968 -1912 -2025 -2092 -193 -33 -493 -42 -688 -20
-644 70 -1241 399 -1656 913 -142 176 -301 459 -379 674 -160 439 -194 922
-96 1367 184 834 813 1526 1634 1797 145 47 347 91 525 112 19 2 148 3 285 1
200 -2 273 -7 365 -23z"/>
<path d="M3395 6259 c-343 -33 -761 -182 -1056 -377 -482 -319 -822 -781 -983
-1335 -117 -403 -113 -899 9 -1302 119 -392 312 -712 606 -1005 356 -357 819
-588 1334 -666 167 -26 513 -26 680 0 484 73 902 272 1261 598 418 379 673
866 756 1443 20 138 17 484 -6 630 -113 743 -566 1389 -1217 1738 -423 227
-899 322 -1384 276z m577 -754 c52 -39 53 -44 56 -290 3 -254 -1 -275 -61
-319 -27 -20 -41 -21 -310 -21 l-282 0 -3 315 c-1 173 0 321 3 328 4 11 61 13
287 10 265 -3 285 -4 310 -23z m888 -111 c0 -3 -42 -54 -92 -112 -112 -129
-552 -635 -589 -677 -15 -16 -93 -106 -174 -200 -82 -93 -173 -199 -204 -233
-94 -108 -99 -81 52 -254 73 -84 299 -344 502 -578 203 -234 372 -427 375
-430 19 -17 250 -289 250 -295 0 -25 -54 30 -242 246 -117 135 -301 346 -408
469 -107 123 -215 247 -240 276 -25 29 -112 130 -195 224 -82 95 -160 184
-172 199 -19 23 -23 24 -36 11 -8 -8 -104 -118 -213 -245 -110 -126 -278 -320
-374 -430 -266 -305 -358 -411 -435 -500 -131 -152 -153 -175 -164 -175 -20 0
-12 14 52 86 34 39 132 151 217 249 164 189 434 499 479 550 15 17 87 100 161
185 73 85 165 190 203 233 62 69 68 79 56 94 -15 20 -265 307 -487 563 -621
712 -587 671 -560 669 7 0 33 -24 58 -53 25 -28 70 -81 101 -116 32 -36 106
-122 165 -191 60 -69 244 -280 409 -469 165 -188 310 -355 322 -369 19 -23 23
-24 36 -11 17 17 469 537 831 954 43 50 105 121 138 159 33 37 81 92 106 122
40 47 72 69 72 49z m365 -1090 c67 -31 70 -43 73 -299 3 -254 -1 -275 -61
-319 -27 -20 -41 -21 -310 -21 l-282 0 -3 315 c-1 173 0 320 3 327 3 10 67 13
276 13 227 0 276 -3 304 -16z m-3081 -176 c33 -82 63 -148 66 -148 4 0 35 66
71 148 l64 147 64 0 64 0 66 -147 c36 -81 70 -146 75 -145 7 2 95 219 113 280
4 14 17 17 64 17 39 0 59 -4 59 -12 0 -21 -183 -503 -194 -511 -6 -4 -29 -6
-50 -5 l-39 3 -47 105 c-26 58 -62 137 -80 175 l-33 70 -14 -35 c-8 -19 -42
-98 -76 -175 l-62 -140 -42 -3 c-32 -2 -44 1 -51 15 -5 10 -51 124 -102 253
-51 129 -94 241 -97 248 -4 10 9 12 58 10 l64 -3 59 -147z m1784 -911 c3 -24
8 -27 38 -27 27 0 34 -4 34 -20 0 -16 -7 -20 -35 -20 l-35 0 0 -49 c0 -49 1
-50 32 -53 22 -2 34 -9 36 -20 3 -15 -4 -18 -40 -18 -24 0 -49 5 -56 12 -8 8
-12 49 -12 121 0 98 2 108 18 105 10 -2 18 -14 20 -31z m-304 -43 c9 -9 16
-32 16 -54 l0 -39 -72 -3 c-100 -4 -105 -26 -6 -30 60 -2 73 -6 76 -20 3 -16
-6 -18 -82 -18 -99 0 -106 6 -106 87 0 76 18 93 95 93 44 0 68 -5 79 -16z
m207 6 c10 -6 19 -17 19 -25 0 -11 -14 -13 -70 -8 -61 5 -70 4 -70 -11 0 -13
10 -16 51 -16 66 0 89 -13 89 -50 0 -56 -6 -60 -90 -60 -62 0 -79 3 -84 16
-11 29 -6 31 64 26 60 -4 70 -2 70 12 0 13 -11 16 -58 16 -32 0 -63 5 -70 12
-18 18 -15 75 6 87 22 14 118 14 143 1z m237 -153 c2 -12 -3 -17 -17 -17 -12
0 -21 6 -21 13 0 31 32 34 38 4z m-568 -466 c5 -11 10 -32 10 -46 0 -57 -13
-65 -105 -65 -84 0 -85 0 -85 -25 0 -24 2 -24 92 -27 79 -3 93 -6 96 -20 3
-16 -7 -18 -112 -18 l-116 0 0 54 c0 33 5 58 13 63 6 4 48 10 92 13 72 4 80 7
80 25 0 18 -8 20 -72 23 -46 2 -73 -1 -73 -8 0 -5 -9 -10 -20 -10 -13 0 -20 7
-20 18 0 34 21 42 117 42 81 0 94 -2 103 -19z m258 7 c13 -13 17 -163 6 -192
-5 -13 -24 -16 -104 -16 -61 0 -101 4 -106 11 -7 13 -6 188 2 201 8 13 188 10
202 -4z m152 -98 c0 -103 -1 -110 -20 -110 -18 0 -20 7 -20 82 0 64 -3 79 -12
70 -16 -16 -48 -16 -48 0 0 21 53 68 77 68 23 0 23 -2 23 -110z m245 0 l0
-105 -105 0 -105 0 -3 99 c-2 73 1 102 10 108 7 4 56 7 108 6 l95 -3 0 -105z"/>
<path d="M3495 5397 c-3 -7 -4 -100 -3 -207 l3 -195 205 0 205 0 0 205 0 205
-203 3 c-159 2 -204 0 -207 -11z"/>
<path d="M4762 3993 l3 -208 205 0 205 0 3 208 2 207 -210 0 -210 0 2 -207z"/>
<path d="M3497 3144 c-17 -17 -3 -24 49 -24 40 0 55 4 52 13 -5 13 -89 22
-101 11z"/>
<path d="M3587 2533 c-10 -9 -9 -81 1 -87 4 -2 32 17 62 44 l55 49 -56 1 c-31
0 -59 -3 -62 -7z"/>
<path d="M3673 2457 c-29 -23 -52 -45 -52 -49 -1 -5 24 -8 54 -8 l55 0 0 50
c0 28 -1 50 -2 50 -2 0 -26 -20 -55 -43z"/>
<path d="M3980 2515 c0 -24 2 -25 70 -25 68 0 70 1 70 25 0 24 -2 25 -70 25
-68 0 -70 -1 -70 -25z"/>
<path d="M3980 2425 c0 -24 2 -25 70 -25 68 0 70 1 70 25 0 24 -2 25 -70 25
-68 0 -70 -1 -70 -25z"/>
</g>
</svg>
